{"title":"ãƒ‡ã‚£ã‚¢ãƒ»ãƒ‰ã‚¯ã‚¿ãƒ¼ / Dear Doctor [Miwa Nishikawa, 2009]","uid":7675233,"size":856425420,"categoryP":"video","categoryS":"movies","magnet":"?xt=urn:btih:92a0621da5e622c275d3e49cefac8a1bfc57fc79&amp;dn=+%E3%83%87%E3%82%A3%E3%82%A2%E3%83%BB%E3%83%89%E3%82%AF%E3%82%BF%E3%83%BC+%2F+Dear+Doctor+%5BMiwa+Nishikawa%2C+2009%5D&amp;tr=udp%3A%2F%2Ftracker.openbittorrent.com%3A80&amp;tr=udp%3A%2F%2Fopen.demonii.com%3A1337&amp;tr=udp%3A%2F%2Ftracker.coppersurfer.tk%3A6969&amp;tr=udp%3A%2F%2Fexodus.desync.com%3A6969","seeders":0,"leechers":1,"uploader":"oyajisan","files":-1,"time":1348678490,"description":"General\nComplete name                            : Dear Doctor [Miwa Nishikawa, 2009] [AVC-AAC] [JP-EN].mp4\nFormat                                   : MPEG-4\nFormat profile                           : Base Media / Version 2\nCodec ID                                 : mp42\nFile size                                : 817 MiB\nDuration                                 : 2h 8mn\nOverall bit rate mode                    : Variable\nOverall bit rate                         : 891 Kbps\n\nVideo\nFormat                                   : AVC\nFormat/Info                              : Advanced Video Codec\nFormat settings, CABAC                   : Yes\nFormat settings, ReFrames                : 2 frames\nCodec ID                                 : avc1\nCodec ID/Info                            : Advanced Video Coding\nDuration                                 : 2h 8mn\nBit rate mode                            : Variable\nBit rate                                 : 727 Kbps\nWidth                                    : 716 pixels\nHeight                                   : 472 pixels\nDisplay aspect ratio                     : 16:9\nFrame rate mode                          : Constant\nFrame rate                               : 29.970 fps\nChroma subsampling                       : 4:2:0\nBit depth                                : 8 bits\nScan type                                : Progressive\nStream size                              : 667 MiB (82%)\nWriting library                          : x264 core 79\n\nAudio\nFormat                                   : AAC\nFormat/Info                              : Advanced Audio Codec\nDuration                                 : 2h 8mn\nBit rate mode                            : Variable\nBit rate                                 : 159 Kbps\nMaximum bit rate                         : 237 Kbps\nChannel(s)                               : 2 channels\nSampling rate                            : 48.0 KHz\nCompression mode                         : Lossy\nStream size                              : 146 MiB (18%)\nLanguage                                 : Japanese\n\nText\nFormat                                   : Apple text\nCodec ID                                 : text\nDuration                                 : 2h 8mn\nBit rate mode                            : Variable\nLanguage                                 : English","torrent":{"xt":"urn:btih:92a0621da5e622c275d3e49cefac8a1bfc57fc79","amp;dn":"+%E3%83%87%E3%82%A3%E3%82%A2%E3%83%BB%E3%83%89%E3%82%AF%E3%82%BF%E3%83%BC+%2F+Dear+Doctor+%5BMiwa+Nishikawa%2C+2009%5D","amp;tr":["udp%3A%2F%2Ftracker.openbittorrent.com%3A80","udp%3A%2F%2Fopen.demonii.com%3A1337","udp%3A%2F%2Ftracker.coppersurfer.tk%3A6969","udp%3A%2F%2Fexodus.desync.com%3A6969"],"infoHash":"92a0621da5e622c275d3e49cefac8a1bfc57fc79","infoHashBuffer":{"type":"Buffer","data":[146,160,98,29,165,230,34,194,117,211,228,156,239,172,138,27,252,87,252,121]},"announce":[],"urlList":[]}}